<svg width="618" height="170" viewBox="0 0 618 170" fill="none" xmlns="http://www.w3.org/2000/svg">
<path d="M1.86442 95.4308C0.885798 92.6954 0.396484 89.1869 0.396484 84.9053C0.396484 80.6238 0.885798 77.1748 1.86442 74.5583C2.84305 71.8228 4.55564 69.5631 7.00221 67.7791C9.5711 65.9952 12.0788 64.6869 14.5254 63.8544C16.972 62.9029 20.6418 61.7731 25.5349 60.4648L77.4633 46.7282C79.9098 46.7282 81.1331 48.9879 81.1331 53.5073C81.1331 58.0267 79.7263 60.5243 76.9128 61L27.5534 74.3799C21.1923 76.0449 17.2166 77.4721 15.6263 78.6614C14.0361 79.8507 13.2409 81.932 13.2409 84.9053C13.2409 87.8787 14.0361 89.96 15.6263 91.1493C17.2166 92.3386 21.1923 93.7658 27.5534 95.4308L76.9128 108.811C79.7263 109.286 81.1331 111.784 81.1331 116.303C81.1331 120.823 79.9098 123.083 77.4633 123.083L25.5349 109.346C20.6418 108.038 16.972 106.967 14.5254 106.135C12.0788 105.183 9.5711 103.816 7.00221 102.032C4.55564 100.248 2.84305 98.0473 1.86442 95.4308ZM180.698 127.186V22.1092C180.698 19.3738 183.145 18.0061 188.038 18.0061C192.931 18.0061 195.378 19.3738 195.378 22.1092V125.402C195.378 135.154 192.014 142.29 185.286 146.809C178.558 151.329 170.178 153.589 160.147 153.589C150.116 153.589 141.737 151.329 135.009 146.809C128.403 142.29 125.1 135.154 125.1 125.402V103.637C125.1 100.902 127.547 99.534 132.44 99.534C137.333 99.534 139.779 100.902 139.779 103.637V127.186C139.779 136.462 146.569 141.101 160.147 141.101C173.848 141.101 180.698 136.462 180.698 127.186ZM318.854 44.409V125.402C318.854 135.273 314.879 142.468 306.928 146.988C299.099 151.388 288.701 153.589 275.734 153.589C247.843 153.589 233.898 144.193 233.898 125.402V44.409C233.898 34.5376 237.812 27.4017 245.641 23.0012C253.592 18.4818 264.051 16.2221 277.018 16.2221C304.909 16.2221 318.854 25.6177 318.854 44.409ZM248.577 42.625V127.186C248.577 136.462 257.813 141.101 276.284 141.101C294.878 141.101 304.175 136.462 304.175 127.186V42.625C304.175 33.3483 294.878 28.71 276.284 28.71C257.813 28.71 248.577 33.3483 248.577 42.625ZM396.855 151.805H384.561C374.04 151.805 366.578 149.367 362.175 144.49C357.771 139.495 355.569 131.467 355.569 120.407V44.409C355.569 34.5376 359.239 27.4017 366.578 23.0012C373.918 18.4818 383.704 16.2221 395.937 16.2221C408.17 16.2221 417.895 18.4818 425.112 23.0012C432.33 27.4017 435.939 34.5376 435.939 44.409V61C435.939 72.6554 431.168 79.9102 421.626 82.7646C432.391 85.2621 437.773 92.6359 437.773 104.886V123.618C437.773 133.489 434.042 140.684 426.58 145.204C419.118 149.604 409.21 151.805 396.855 151.805ZM403.277 89.1869H380.34C377.894 89.1869 376.67 87.1056 376.67 82.943C376.67 78.7803 377.894 76.699 380.34 76.699H401.442C414.653 76.699 421.259 71.466 421.259 61V42.625C421.259 33.3483 412.757 28.71 395.754 28.71C378.75 28.71 370.248 33.3483 370.248 42.625V120.407C370.248 127.305 371.288 132.181 373.368 135.035C375.57 137.89 379.301 139.317 384.561 139.317H396.488C414.225 139.317 423.094 134.678 423.094 125.402V104.886C423.094 94.4199 416.488 89.1869 403.277 89.1869ZM471.339 165.541C470.483 168.277 468.036 169.644 463.999 169.644C459.963 169.644 457.944 168.634 457.944 166.612C457.944 166.374 458.189 165.363 458.678 163.579L502.716 4.26942C503.573 1.53398 506.019 0.16626 510.056 0.16626C514.093 0.16626 516.111 1.17718 516.111 3.19903C516.111 3.43689 515.867 4.44781 515.377 6.23179L471.339 165.541ZM615.556 74.5583C616.534 77.1748 617.023 80.6238 617.023 84.9053C617.023 89.1869 616.534 92.6954 615.556 95.4308C614.577 98.0473 612.803 100.248 610.234 102.032C607.788 103.816 605.341 105.183 602.895 106.135C600.448 106.967 596.778 108.038 591.885 109.346L539.957 123.083C537.51 123.083 536.287 120.823 536.287 116.303C536.287 111.784 537.694 109.286 540.507 108.811L589.867 95.4308C596.228 93.7658 600.203 92.3386 601.794 91.1493C603.384 89.96 604.179 87.8787 604.179 84.9053C604.179 81.932 603.384 79.8507 601.794 78.6614C600.203 77.4721 596.228 76.0449 589.867 74.3799L540.507 61C537.694 60.5243 536.287 58.0267 536.287 53.5073C536.287 48.9879 537.51 46.7282 539.957 46.7282L591.885 60.4648C596.778 61.7731 600.448 62.9029 602.895 63.8544C605.341 64.6869 607.788 65.9952 610.234 67.7791C612.803 69.5631 614.577 71.8228 615.556 74.5583Z" fill="#454893"/>
<path d="M153.753 35.6437V37.2611C153.753 40.9401 151.665 45.2534 147.49 50.2009L119.11 83.5971H151.796C153.1 83.5971 153.753 84.7067 153.753 86.9272C153.753 89.1476 153.1 90.2573 151.796 90.2573H110.4C109.095 90.2573 108.443 89.1476 108.443 86.9272C108.443 85.5951 108.736 84.5806 109.324 83.8825L140.444 47.2514C142.401 44.9045 143.803 42.9699 144.652 41.4475C145.5 39.9252 145.924 38.3711 145.924 36.7854V35.6437C145.924 32.4087 145.337 30.0935 144.163 28.698C143.053 27.2391 141.096 26.5097 138.291 26.5097H114.608C113.303 26.5097 112.651 25.3997 112.651 23.1796C112.651 20.9595 113.303 19.8495 114.608 19.8495H138.291C143.901 19.8495 147.881 21.1181 150.23 23.6553C152.579 26.1925 153.753 30.1886 153.753 35.6437Z" fill="#454893"/>
</svg>
