<svg width="536" height="159" viewBox="0 0 536 159" fill="none" xmlns="http://www.w3.org/2000/svg">
<path d="M1.83285 89.2418C0.983999 86.6962 0.55957 83.4311 0.55957 79.4466C0.55957 75.4622 0.983999 72.2525 1.83285 69.8175C2.68171 67.2719 4.1672 65.169 6.28934 63.5088C8.51758 61.8486 10.6928 60.6311 12.8149 59.8563C14.9371 58.9709 18.1203 57.9194 22.3645 56.702L67.4069 43.9185C69.529 43.9185 70.5901 46.0214 70.5901 50.2272C70.5901 54.433 69.3699 56.7573 66.9294 57.2L24.1153 69.6515C18.5977 71.201 15.1493 72.5292 13.7699 73.636C12.3905 74.7428 11.7008 76.6796 11.7008 79.4466C11.7008 82.2136 12.3905 84.1505 13.7699 85.2573C15.1493 86.3641 18.5977 87.6923 24.1153 89.2418L66.9294 101.693C69.3699 102.136 70.5901 104.46 70.5901 108.666C70.5901 112.872 69.529 114.975 67.4069 114.975L22.3645 102.191C18.1203 100.974 14.9371 99.9777 12.8149 99.2029C10.6928 98.3175 8.51758 97.0447 6.28934 95.3845C4.1672 93.7243 2.68171 91.6767 1.83285 89.2418ZM156.952 118.793V21.0078C156.952 18.4622 159.075 17.1893 163.319 17.1893C167.563 17.1893 169.685 18.4622 169.685 21.0078V117.133C169.685 126.209 166.767 132.85 160.931 137.055C155.096 141.261 147.827 143.364 139.126 143.364C130.426 143.364 123.157 141.261 117.321 137.055C111.592 132.85 108.727 126.209 108.727 117.133V96.8787C108.727 94.333 110.849 93.0602 115.093 93.0602C119.337 93.0602 121.46 94.333 121.46 96.8787V118.793C121.46 127.426 127.349 131.743 139.126 131.743C151.01 131.743 156.952 127.426 156.952 118.793ZM276.788 41.7602V117.133C276.788 126.319 273.34 133.016 266.443 137.221C259.652 141.317 250.633 143.364 239.386 143.364C215.193 143.364 203.097 134.62 203.097 117.133V41.7602C203.097 32.5738 206.493 25.933 213.283 21.8379C220.18 17.6321 229.253 15.5292 240.5 15.5292C264.692 15.5292 276.788 24.2728 276.788 41.7602ZM215.83 40.1V118.793C215.83 127.426 223.841 131.743 239.863 131.743C255.991 131.743 264.056 127.426 264.056 118.793V40.1C264.056 31.467 255.991 27.1505 239.863 27.1505C223.841 27.1505 215.83 31.467 215.83 40.1ZM344.445 141.704H333.782C324.656 141.704 318.184 139.435 314.364 134.897C310.544 130.249 308.634 122.778 308.634 112.485V41.7602C308.634 32.5738 311.817 25.933 318.184 21.8379C324.55 17.6321 333.039 15.5292 343.649 15.5292C354.26 15.5292 362.696 17.6321 368.956 21.8379C375.216 25.933 378.346 32.5738 378.346 41.7602V57.2C378.346 68.0466 374.208 74.7981 365.932 77.4544C375.269 79.7787 379.938 86.6408 379.938 98.0408V115.473C379.938 124.659 376.702 131.355 370.229 135.561C363.757 139.656 355.162 141.704 344.445 141.704ZM350.016 83.4311H330.121C327.999 83.4311 326.938 81.4942 326.938 77.6204C326.938 73.7466 327.999 71.8097 330.121 71.8097H348.424C359.884 71.8097 365.614 66.9398 365.614 57.2V40.1C365.614 31.467 358.239 27.1505 343.49 27.1505C328.741 27.1505 321.367 31.467 321.367 40.1V112.485C321.367 118.904 322.269 123.442 324.073 126.098C325.983 128.754 329.219 130.083 333.782 130.083H344.127C359.512 130.083 367.205 125.766 367.205 117.133V98.0408C367.205 88.301 361.475 83.4311 350.016 83.4311ZM409.053 154.487C408.31 157.033 406.188 158.306 402.686 158.306C399.185 158.306 397.434 157.365 397.434 155.484C397.434 155.262 397.646 154.321 398.071 152.661L436.269 4.40585C437.012 1.86022 439.134 0.587402 442.636 0.587402C446.137 0.587402 447.888 1.52818 447.888 3.40973C447.888 3.63109 447.676 4.57187 447.251 6.23206L409.053 154.487ZM534.145 69.8175C534.994 72.2525 535.419 75.4622 535.419 79.4466C535.419 83.4311 534.994 86.6962 534.145 89.2418C533.296 91.6767 531.758 93.7243 529.53 95.3845C527.407 97.0447 525.285 98.3175 523.163 99.2029C521.041 99.9777 517.858 100.974 513.614 102.191L468.571 114.975C466.449 114.975 465.388 112.872 465.388 108.666C465.388 104.46 466.608 102.136 469.049 101.693L511.863 89.2418C517.38 87.6923 520.829 86.3641 522.208 85.2573C523.588 84.1505 524.277 82.2136 524.277 79.4466C524.277 76.6796 523.588 74.7428 522.208 73.636C520.829 72.5292 517.38 71.201 511.863 69.6515L469.049 57.2C466.608 56.7573 465.388 54.433 465.388 50.2272C465.388 46.0214 466.449 43.9185 468.571 43.9185L513.614 56.702C517.858 57.9194 521.041 58.9709 523.163 59.8563C525.285 60.6311 527.407 61.8486 529.53 63.5088C531.758 65.169 533.296 67.2719 534.145 69.8175Z" fill="#CECECE"/>
<path d="M133.58 33.6031V35.1083C133.58 38.532 131.769 42.546 128.147 47.1503L103.53 78.2291H131.882C133.013 78.2291 133.58 79.2618 133.58 81.3282C133.58 83.3945 133.013 84.4272 131.882 84.4272H95.9755C94.8434 84.4272 94.2778 83.3945 94.2778 81.3282C94.2778 80.0885 94.5325 79.1444 95.0418 78.4948L122.035 44.4054C123.733 42.2214 124.949 40.421 125.685 39.0043C126.421 37.5876 126.789 36.1413 126.789 34.6656V33.6031C126.789 30.5926 126.28 28.438 125.261 27.1394C124.299 25.7817 122.601 25.1029 120.168 25.1029H99.6256C98.4935 25.1029 97.9279 24.0699 97.9279 22.0039C97.9279 19.9378 98.4935 18.9048 99.6256 18.9048H120.168C125.034 18.9048 128.487 20.0855 130.524 22.4466C132.561 24.8077 133.58 28.5266 133.58 33.6031Z" fill="#CECECE"/>
</svg>
